<svg xmlns="http://www.w3.org/2000/svg" width="256" height="256" viewBox="0 0 68 68">
  <g fill="#000000ff">
    <path d="m7 14 3-5 1-5-4 5ZM29 20l-3 5-5 4 2-6z"/>
    <path d="m21 20 2 5 6 4-3-6zM7 18v6l4 5v-7z"/>
    <path d="m13 20-2 5-6 4 3-6Z"/>
    <path d="m3 24 6-2 6 2-6 1zM20 9l5-3 6 3-6 1z"/>
    <path d="m21 4 6 3 2 6-5-3z"/>
    <path d="m29 4-2 6-5 3 2-5Z"/>
    <path d="m30 6-4 4-6 1 4-4zM41 47l3-4 1-6-3 5ZM63 53l-2 5-6 4 3-6z"/>
    <path d="m55 53 3 5 5 4-2-6zM41 51l1 6 3 6 1-7z"/>
    <path d="m48 53-3 6-5 3 2-6Z"/>
    <path d="m38 57 5-2 6 2-5 2zM54 42l6-2 6 2-6 1z"/>
    <path d="m56 37 5 3 3 6-5-3z"/>
    <path d="m63 37-2 6-5 3 2-5Z"/>
    <path d="m65 39-4 5h-6l4-4zM62 20l-3 4-1 5 4-4ZM40 14l3-5 5-4-3 6z"/>
    <path d="m48 14-3-5-5-4 3 6zM62 15v-5l-4-6v7z"/>
    <path d="m56 13 2-5 6-4-3 7Z"/>
    <path d="m66 10-6 2-6-2 6-2zM49 25l-5 2-6-2 5-2z"/>
    <path d="m48 29-6-3-2-5 5 3z"/>
    <path d="m40 30 2-6 5-4-2 6Z"/>
    <path d="m39 28 4-5 6-1-5 4zM28 54l-3 4-1 5 4-4ZM6 48l3-6 5-4-3 7z"/>
    <path d="m14 48-3-6-5-4 3 7zM28 49v-6l-4-5v7z"/>
    <path d="m22 47 2-5 6-4-3 7Z"/>
    <path d="m32 43-6 2-6-2 6-1zM15 59l-5 2-6-2 5-2z"/>
    <path d="m14 63-6-3-2-5 5 3z"/>
    <path d="m6 63 2-5 5-4-2 6Z"/>
    <path d="m5 62 4-5 6-1-5 4z"/>
  </g>
</svg>
